# xmcd CD database file
#
# Track frame offsets:
#	150
#	4322
#	23657
#	33380
#	62665
#	82197
#	100847
#	125237
#	143247
#	161157
#	174292
#
# Disc length: 2535 seconds
#
# Revision: 3
# Processed by: cddbd v1.5.2PL0 Copyright (c) Steve Scherf et al.
# Submitted via: CDex 1.51
#
DISCID=9109e50b
DTITLE=Leon Russell - Will O' The Wisp
DYEAR=1900
DGENRE=Rock
TTITLE0=Will O' The Wisp (Instrumental)
TTITLE1=Little Hideaway
TTITLE2=Make You Feel Good
TTITLE3=Can't Get Over Losing You
TTITLE4=My Father's Shoes
TTITLE5=Stay Away From Sad Songs
TTITLE6=Back To The Island
TTITLE7=Down On Deep River
TTITLE8=Bluebird
TTITLE9=Laying Right Here In Heaven
TTITLE10=Lady Blue
EXTD=
EXTT0=
EXTT1=
EXTT2=
EXTT3=
EXTT4=
EXTT5=
EXTT6=
EXTT7=
EXTT8=
EXTT9=
EXTT10=
PLAYORDER=
